<svg width="28" height="41" viewBox="0 0 28 41" fill="none" xmlns="http://www.w3.org/2000/svg">
<g opacity="0.7">
<path fill-rule="evenodd" clip-rule="evenodd" d="M9.78467 3.95435C11.4899 2.24944 14.0537 1.73945 16.2815 2.66248C18.5094 3.5861 19.9628 5.76019 19.9628 8.17117C19.9591 11.4633 17.2917 14.1299 13.9995 14.1335C11.5873 14.1334 9.41322 12.6808 8.48984 10.4531C7.56848 8.22536 8.07747 5.6598 9.78467 3.95435ZM17.4619 4.70876C16.0621 3.3075 13.9565 2.88877 12.1268 3.64667C10.2954 4.40493 9.10224 6.1911 9.10224 8.17117C9.10591 10.875 11.2972 13.0639 13.9995 13.0674C15.9796 13.0674 17.7659 11.8753 18.524 10.0459C19.2821 8.21634 18.8631 6.10846 17.4619 4.70876ZM8.31134 7.25305C8.28913 7.39067 8.27227 7.5292 8.26006 7.66822L8.28275 7.46015C8.29136 7.39098 8.30024 7.32184 8.31134 7.25305ZM9.23932 4.92572C9.15909 5.04329 9.08334 5.16329 9.0125 5.28567L9.12295 5.10421C9.16072 5.0442 9.19921 4.98449 9.23932 4.92572ZM9.7748 4.25414C9.72556 4.30719 9.67779 4.36131 9.63082 4.41587L9.7748 4.25414C9.82399 4.20116 9.87522 4.14874 9.92667 4.09734L9.7748 4.25414ZM12.0489 3.4593C11.9467 3.5016 11.8474 3.54905 11.7491 3.59736L12.0489 3.4593C12.1329 3.4245 12.2173 3.39263 12.3023 3.36266L12.0489 3.4593ZM11.4878 2.98594C11.3614 3.04716 11.2372 3.11349 11.115 3.18416L11.3004 3.0816C11.3624 3.0487 11.4247 3.01648 11.4878 2.98594Z" fill="black"/>
<path fill-rule="evenodd" clip-rule="evenodd" d="M9.91385 1.09351C12.4437 -0.364416 15.5581 -0.364588 18.0861 1.09351C20.6143 2.55361 22.1708 5.25133 22.1708 8.17117C22.1708 8.87304 21.9824 9.71076 21.6728 10.6168C21.3623 11.5257 20.9252 12.5166 20.4204 13.527C19.4483 15.4726 18.2155 17.5052 17.1217 19.1974L18.4895 19.8354L27.2407 15.7557L27.2416 15.7547C27.3805 15.691 27.5432 15.6885 27.6844 15.7528H27.6943L27.7525 15.7892C27.9071 15.8869 28 16.056 28 16.2379V36.0775C27.9999 36.2677 27.8969 36.4435 27.7318 36.538L27.7239 36.5469L27.6913 36.5617L18.7143 40.7479L18.7035 40.7529L18.6926 40.7568C18.6819 40.7604 18.6724 40.7624 18.666 40.7637C18.6626 40.7644 18.6593 40.7643 18.6571 40.7647C18.6036 40.7833 18.5499 40.7952 18.4984 40.7972H18.4806C18.4264 40.795 18.3741 40.7827 18.3228 40.7657H18.3199C18.3135 40.7645 18.3017 40.7622 18.2883 40.7578L18.2775 40.7548L18.2676 40.7499L9.51249 36.6652L0.758356 40.7479C0.593903 40.8234 0.399952 40.81 0.247526 40.7124C0.0925633 40.6145 0.000118386 40.4466 0 40.2637V20.4252C6.51328e-05 20.2202 0.118596 20.0305 0.306695 19.9429L8.8843 15.9411C8.09407 14.5651 7.34748 13.1426 6.79167 11.8249C6.21249 10.4517 5.82826 9.17105 5.8282 8.17117C5.8282 5.25125 7.38582 2.55351 9.91385 1.09351ZM0.673546 40.5645C0.623915 40.5873 0.569898 40.5959 0.516747 40.5931C0.542433 40.5945 0.568231 40.5947 0.593667 40.5901L0.673546 40.5645ZM0.23372 40.4047C0.235023 40.4075 0.23727 40.4099 0.23865 40.4126C0.22802 40.3915 0.218927 40.3697 0.21301 40.3466L0.23372 40.4047ZM1.06505 20.7634V39.4284L8.97799 35.7373V17.0742L1.06505 20.7634ZM10.044 35.7392L17.955 39.4265V20.7644L16.529 20.0997C15.4046 21.7957 14.534 22.9931 14.4305 23.1361C14.3301 23.2743 14.1699 23.356 13.9995 23.356C13.8291 23.356 13.6689 23.2743 13.5686 23.1361C13.4252 22.9376 11.7789 20.6798 10.044 17.8819V35.7392ZM19.022 20.7634V39.4265L26.934 35.7373V17.0742L19.022 20.7634ZM13.7707 23.0612C13.7722 23.0626 13.7741 23.0637 13.7756 23.0651C13.7598 23.0505 13.7452 23.0346 13.7323 23.0168L13.7707 23.0612ZM13.9995 1.06491C12.2338 1.0681 10.5354 1.72748 9.23242 2.90606L8.977 3.14866C7.64502 4.48056 6.8966 6.28738 6.89325 8.17117C6.89378 9.05717 7.27242 10.2808 7.87743 11.6622C8.47966 13.0371 9.29481 14.5438 10.1466 15.9865L10.761 17.0002L10.7619 17.0012C12.066 19.1228 13.352 20.982 13.9995 21.8995C14.3802 21.3622 14.9812 20.4997 15.676 19.4459L15.677 19.443C15.797 19.2663 15.9189 19.0796 16.0458 18.8868C17.147 17.194 18.4151 15.1242 19.4076 13.1661C19.9039 12.1868 20.3303 11.239 20.6314 10.3821C20.9335 9.52233 21.1047 8.76743 21.1048 8.17117L21.0959 7.81911C21.0121 6.18063 20.3657 4.62021 19.2646 3.40407L19.022 3.14866C17.7732 1.90129 16.1071 1.16474 14.3516 1.07477L13.9995 1.06491ZM10.5361 18.2941C10.732 18.6045 10.9268 18.9058 11.116 19.1974C10.7052 18.5641 10.2725 17.8814 9.84186 17.1718L10.5361 18.2941ZM13.2727 0.901204C13.3938 0.888962 13.5155 0.879839 13.6376 0.873592C13.7579 0.867431 13.8785 0.863943 13.9995 0.86373C13.7557 0.864159 13.5132 0.876776 13.2727 0.901204Z" fill="black"/>
</g>
</svg>
